<?xml version="1.0" encoding="UTF-8" standalone="no"?>
<!-- Created with Inkscape (http://www.inkscape.org/) -->

<svg
   xmlns:dc="http://purl.org/dc/elements/1.1/"
   xmlns:cc="http://creativecommons.org/ns#"
   xmlns:rdf="http://www.w3.org/1999/02/22-rdf-syntax-ns#"
   xmlns:svg="http://www.w3.org/2000/svg"
   xmlns="http://www.w3.org/2000/svg"
   xmlns:xlink="http://www.w3.org/1999/xlink"
   xmlns:sodipodi="http://sodipodi.sourceforge.net/DTD/sodipodi-0.dtd"
   xmlns:inkscape="http://www.inkscape.org/namespaces/inkscape"
   width="128"
   height="128"
   id="svg5545"
   version="1.1"
   inkscape:version="0.48.0 r9654"
   sodipodi:docname="logo.svg"
   inkscape:export-filename="/Users/weg/Documents/projects/blockd3/favicon.png"
   inkscape:export-xdpi="185.80646"
   inkscape:export-ydpi="185.80646">
  <defs
     id="defs5547">
    <linearGradient
       id="linearGradient3823">
      <stop
         style="stop-color:#7e7b7b;stop-opacity:0.4453125;"
         offset="0"
         id="stop3825" />
      <stop
         style="stop-color:#b1aeae;stop-opacity:0;"
         offset="1"
         id="stop3827" />
    </linearGradient>
    <linearGradient
       inkscape:collect="always"
       xlink:href="#linearGradient3823"
       id="linearGradient3829"
       x1="27.988693"
       y1="107.05029"
       x2="33.500301"
       y2="49.671654"
       gradientUnits="userSpaceOnUse" />
  </defs>
  <sodipodi:namedview
     id="base"
     pagecolor="#ffffff"
     bordercolor="#666666"
     borderopacity="1.0"
     inkscape:pageopacity="0.0"
     inkscape:pageshadow="2"
     inkscape:zoom="4"
     inkscape:cx="64.259505"
     inkscape:cy="75.390304"
     inkscape:document-units="px"
     inkscape:current-layer="layer1"
     showgrid="false"
     showguides="true"
     inkscape:guide-bbox="true"
     inkscape:window-width="900"
     inkscape:window-height="840"
     inkscape:window-x="68"
     inkscape:window-y="0"
     inkscape:window-maximized="0">
    <inkscape:grid
       type="xygrid"
       id="grid3031"
       empspacing="5"
       visible="true"
       enabled="true"
       snapvisiblegridlinesonly="true" />
  </sodipodi:namedview>
  <metadata
     id="metadata5550">
    <rdf:RDF>
      <cc:Work
         rdf:about="">
        <dc:format>image/svg+xml</dc:format>
        <dc:type
           rdf:resource="http://purl.org/dc/dcmitype/StillImage" />
        <dc:title />
      </cc:Work>
    </rdf:RDF>
  </metadata>
  <g
     inkscape:groupmode="layer"
     id="layer3"
     inkscape:label="bg"
     sodipodi:insensitive="true">
    <path
       style="fill:#ffffff;stroke:#999999;stroke-width:1px;stroke-linecap:butt;stroke-linejoin:miter;stroke-opacity:1;display:inline"
       d="m 2.2745021,22.619215 c -0.7805847,1.087863 -1.39446027,3.467753 -1.39446027,3.467753 l -0.3420503,62.595199 c 0,0 -0.0393096,4.626318 1.06075927,6.542144 0.6492789,1.130752 3.0191978,2.48715 3.0191978,2.48715 L 51.328562,123.29919 c 0,0 4.168783,2.04405 6.430314,2.2513 1.881937,0.17246 5.602367,-0.86967 5.602367,-0.86967 L 123.33474,93.819952 c 0,0 3.09079,-2.101651 3.88227,-3.70614 0.80781,-1.637574 0.5901,-5.446061 0.5901,-5.446061 l 0.31908,-52.967807 c 0,0 0.23634,-4.127398 -1.05691,-5.997481 -1.61175,-2.330626 -6.87373,-3.776005 -6.87373,-3.776005 L 68.574892,3.3160459 c 0,0 -4.371757,-1.8565312 -6.782515,-1.8845535 -2.28451,-0.026555 -6.48092,1.6029572 -6.48092,1.6029572 L 6.2949924,20.214178 c 0,0 -2.912144,0.860389 -4.0204903,2.405037 z"
       id="path3049"
       inkscape:connector-curvature="0"
       sodipodi:nodetypes="sccaccaccaccsccsccs" />
  </g>
  <g
     inkscape:label="Layer 1"
     inkscape:groupmode="layer"
     id="layer1"
     transform="translate(0,-924.3622)"
     style="display:inline">
    <g
       id="text3005"
       style="font-size:47.46676636px;font-style:normal;font-variant:normal;font-weight:normal;font-stretch:normal;text-align:start;line-height:125%;letter-spacing:0px;word-spacing:0px;writing-mode:lr-tb;text-anchor:start;fill:#ff0000;fill-opacity:1;stroke:none;font-family:Sans;-inkscape-font-specification:Sans"
       transform="matrix(2.2532345,-0.76774566,1.3115596,0.65391871,14.782841,-512.45867)">
      <path
         inkscape:connector-curvature="0"
         id="path3034"
         style="fill:#ff0000;font-family:Gill Sans;-inkscape-font-specification:Gill Sans"
         d="m -760.18309,1359.4807 -10.96278,0 0,-32.3784 8.48283,0 c 2.67308,0 4.75902,0.3631 6.25783,1.0893 1.49876,0.7108 2.64217,1.6997 3.43021,2.9667 0.788,1.2515 1.18201,2.704 1.18203,4.3573 -2e-5,3.183 -1.64559,5.4621 -4.93672,6.8372 2.36404,0.4481 4.24139,1.4216 5.63204,2.9203 1.40605,1.4988 2.10909,3.2912 2.10912,5.3771 -3e-5,1.6533 -0.42494,3.1289 -1.27474,4.4269 -0.84986,1.2979 -2.10142,2.3563 -3.7547,3.1752 -1.63787,0.819 -3.69291,1.2284 -6.16512,1.2284 m -2.34089,-28.2529 -3.98646,0 0,9.7344 3.08255,0 c 2.47222,0 4.22595,-0.4713 5.26121,-1.4138 1.05068,-0.9425 1.57603,-2.1632 1.57605,-3.662 -2e-5,-3.1057 -1.9778,-4.6586 -5.93335,-4.6586 m 0.34766,13.8599 -4.33412,0 0,10.2675 4.56589,0 c 2.53402,0 4.24912,-0.1932 5.14532,-0.5794 0.91162,-0.4018 1.63784,-1.0198 2.17865,-1.8542 0.55624,-0.8344 0.83436,-1.7306 0.83438,-2.6886 -2e-5,-0.9888 -0.2936,-1.8928 -0.88073,-2.7117 -0.57172,-0.8189 -1.39065,-1.4292 -2.45678,-1.831 -1.06616,-0.4017 -2.75036,-0.6026 -5.05261,-0.6026" />
    </g>
    <path
       style="font-size:52.05965805px;font-style:normal;font-variant:normal;font-weight:normal;font-stretch:normal;text-align:end;line-height:125%;letter-spacing:0px;word-spacing:0px;writing-mode:lr-tb;text-anchor:end;fill:#000000;fill-opacity:1;stroke:none;font-family:Gill Sans;-inkscape-font-specification:Gill Sans"
       sodipodi:nodetypes="ccccc"
       inkscape:connector-curvature="0"
       d="m 68.005367,1000.5289 8.147626,-4.05869 0,35.53579 -8.147624,4.0584 0,-35.5355"
       id="path6110" />
    <path
       style="font-size:52.05965805px;font-style:normal;font-variant:normal;font-weight:normal;font-stretch:normal;text-align:end;line-height:125%;letter-spacing:0px;word-spacing:0px;writing-mode:lr-tb;text-anchor:end;fill:#000000;fill-opacity:1;stroke:none;font-family:Gill Sans;-inkscape-font-specification:Gill Sans"
       sodipodi:nodetypes="ccccc"
       inkscape:connector-curvature="0"
       d="m 88.061073,990.53825 8.147632,-4.05862 0,35.53557 -8.147632,4.0586 0,-35.53555"
       id="path6112" />
    <path
       style="font-size:52.05965805px;font-style:normal;font-variant:normal;font-weight:normal;font-stretch:normal;text-align:end;line-height:125%;letter-spacing:0px;word-spacing:0px;writing-mode:lr-tb;text-anchor:end;fill:#000000;fill-opacity:1;stroke:none;font-family:Gill Sans;-inkscape-font-specification:Gill Sans"
       sodipodi:nodetypes="ccccc"
       inkscape:connector-curvature="0"
       d="m 108.11678,980.54752 8.14763,-4.05862 0,35.5358 -8.14763,4.0584 0,-35.53558"
       id="path6114" />
    <text
       xml:space="preserve"
       style="font-size:88.36408234px;font-style:normal;font-variant:normal;font-weight:normal;font-stretch:normal;text-align:end;line-height:125%;letter-spacing:0px;word-spacing:0px;writing-mode:lr-tb;text-anchor:end;fill:#000000;fill-opacity:1;stroke:none;font-family:Gill Sans;-inkscape-font-specification:Gill Sans"
       x="52.266296"
       y="1090.0919"
       id="text5553"
       sodipodi:linespacing="125%"
       transform="matrix(1.0765701,0.53628674,0,0.92887588,0,0)"><tspan
         sodipodi:role="line"
         id="tspan5555"
         x="52.266296"
         y="1090.0919">d</tspan></text>
    <path
       style="fill:#000000;stroke:none"
       d="m 13.429774,964.18749 0,0.34485 11.701117,11.28584 13.310452,0.78528 z m -0.0571,2.9562 -0.342624,18.67322 7.829766,-7.4909 z m 14.610817,11.72361 11.657039,11.82744 0,-12.51465 z m -3.534371,1.08211 -9.192013,6.21251 c 9.032217,-2.44469 15.083395,0.24632 20.785866,3.54753 z"
       id="path6073"
       inkscape:connector-curvature="0"
       sodipodi:nodetypes="ccccccccccccccccc" />
    <path
       style="font-size:52.05965805px;font-style:normal;font-variant:normal;font-weight:normal;font-stretch:normal;text-align:end;line-height:125%;letter-spacing:0px;word-spacing:0px;writing-mode:lr-tb;text-anchor:end;fill:#000000;fill-opacity:1;stroke:none;font-family:Gill Sans;-inkscape-font-specification:Gill Sans"
       sodipodi:nodetypes="cccsccscc"
       inkscape:connector-curvature="0"
       id="path6102"
       d="m 72.034414,983.57375 c 1.343005,-0.66892 2.492026,-0.84216 3.447075,-0.51972 0.955021,0.32259 1.432536,1.06334 1.43255,2.22193 -1.4e-5,1.1332 -0.477529,2.34935 -1.43255,3.64918 -0.955049,1.29983 -2.10407,2.28428 -3.447075,2.95306 -1.25349,0.62475 -2.357746,0.76253 -3.312775,0.4144 -0.955035,-0.37413 -1.432555,-1.11472 -1.43255,-2.22193 -5e-6,-1.08168 0.477515,-2.27228 1.43255,-3.57211 0.955029,-1.32537 2.059285,-2.30036 3.312775,-2.92481" />
    <path
       style="font-size:52.05965805px;font-style:normal;font-variant:normal;font-weight:normal;font-stretch:normal;text-align:end;line-height:125%;letter-spacing:0px;word-spacing:0px;writing-mode:lr-tb;text-anchor:end;fill:#4682b4;fill-opacity:1;stroke:none;font-family:Gill Sans;-inkscape-font-specification:Gill Sans"
       sodipodi:nodetypes="cccsccscc"
       inkscape:connector-curvature="0"
       id="path6104"
       d="m 92.087345,973.41324 c 1.398493,-0.69658 2.594989,-0.87718 3.589494,-0.54121 0.994477,0.33596 1.491722,1.10706 1.491737,2.31358 -1.5e-5,1.18009 -0.497261,2.44641 -1.491737,3.79988 -0.994505,1.35363 -2.191001,2.37865 -3.589494,3.07522 -1.305275,0.65044 -2.455154,0.79408 -3.449639,0.43137 -0.994496,-0.38945 -1.491746,-1.1607 -1.491739,-2.31359 -7e-6,-1.12628 0.497243,-2.36617 1.491739,-3.71964 0.994485,-1.38022 2.144364,-2.39532 3.449639,-3.04561" />
    <path
       style="font-size:52.05965805px;font-style:normal;font-variant:normal;font-weight:normal;font-stretch:normal;text-align:end;line-height:125%;letter-spacing:0px;word-spacing:0px;writing-mode:lr-tb;text-anchor:end;fill:#000000;fill-opacity:1;stroke:none;font-family:Gill Sans;-inkscape-font-specification:Gill Sans"
       sodipodi:nodetypes="cccsccscc"
       inkscape:connector-curvature="0"
       id="path6106"
       d="m 112.14583,963.59259 c 1.343,-0.66908 2.49203,-0.84231 3.44707,-0.51987 0.95503,0.32259 1.43254,1.06333 1.43256,2.22208 -2e-5,1.13305 -0.47753,2.3492 -1.43256,3.64918 -0.95504,1.29968 -2.10407,2.28413 -3.44707,2.95306 -1.2535,0.62459 -2.35775,0.76238 -3.31278,0.41425 -0.95504,-0.37398 -1.43255,-1.11473 -1.43254,-2.22194 -1e-5,-1.08152 0.4775,-2.27227 1.43254,-3.57195 0.95503,-1.32552 2.05928,-2.30051 3.31278,-2.92481" />
    <path
       style="font-size:52.05965805px;font-style:normal;font-variant:normal;font-weight:normal;font-stretch:normal;text-align:end;line-height:125%;letter-spacing:0px;word-spacing:0px;writing-mode:lr-tb;text-anchor:end;fill:#000000;fill-opacity:1;stroke:none;font-family:Gill Sans;-inkscape-font-specification:Gill Sans"
       d="m 32.207557,1002.7358 c -2.268911,-1.1304 -4.210105,-1.4233 -5.823589,-0.8783 -1.613439,0.545 -2.42017,1.7962 -2.420194,3.7539 2.4e-5,1.9142 0.806755,3.9689 2.420194,6.1647 1.613484,2.1961 3.554678,3.8591 5.823589,4.9892 2.117685,1.0552 3.983245,1.2882 5.596697,0.6999 1.613468,-0.6318 2.420201,-1.8833 2.420191,-3.7539 10e-6,-1.8271 -0.806723,-3.8387 -2.420191,-6.0346 -1.613452,-2.2392 -3.479012,-3.8862 -5.596697,-4.9409"
       id="path6135"
       inkscape:connector-curvature="0"
       sodipodi:nodetypes="cccsccscc" />
    <path
       sodipodi:type="arc"
       style="fill:#4682b4;fill-opacity:1;stroke:none"
       id="path6148"
       sodipodi:cx="15.572268"
       sodipodi:cy="41.971081"
       sodipodi:rx="1.8381519"
       sodipodi:ry="2.0982678"
       d="m 17.097757,40.800445 a 1.8381519,2.0982678 0 0 1 -1.032601,3.192063 l -0.492888,-2.021427 z"
       transform="matrix(3.7928704,0,1.8227919,3.2053511,-102.51187,875.59559)"
       sodipodi:start="5.6913248"
       sodipodi:end="7.5825164" />
  </g>
  <g
     inkscape:groupmode="layer"
     id="layer2"
     inkscape:label="light"
     transform="translate(0,66)"
     style="display:inline"
     sodipodi:insensitive="true">
    <path
       style="fill:url(#linearGradient3829);fill-opacity:1;stroke:none"
       d="M 0.40124918,22.070211 0.84451459,91.803539 C 2.0620374,95.420455 2.3943665,96.409498 6.2999199,97.957581 L 53.034204,123.88909 c 2.158707,-0.42267 5.453908,-2.93586 5.196074,-6.60816 L 58.279,56.176392 z"
       id="path3053"
       inkscape:connector-curvature="0"
       transform="translate(0,-66)"
       sodipodi:nodetypes="ccccccc" />
  </g>
</svg>
