<?xml version="1.0" encoding="UTF-8" standalone="no"?>
<!-- Created with Inkscape (http://www.inkscape.org/) -->

<svg
   xmlns:dc="http://purl.org/dc/elements/1.1/"
   xmlns:cc="http://creativecommons.org/ns#"
   xmlns:rdf="http://www.w3.org/1999/02/22-rdf-syntax-ns#"
   xmlns:svg="http://www.w3.org/2000/svg"
   xmlns="http://www.w3.org/2000/svg"
   xmlns:sodipodi="http://sodipodi.sourceforge.net/DTD/sodipodi-0.dtd"
   xmlns:inkscape="http://www.inkscape.org/namespaces/inkscape"
   width="128"
   height="128"
   id="svg5545"
   version="1.1"
   inkscape:version="0.48.0 r9654"
   sodipodi:docname="logo.svg"
   inkscape:export-filename="/Users/weg/Documents/projects/blockd3/favicon.png"
   inkscape:export-xdpi="185.80646"
   inkscape:export-ydpi="185.80646">
  <defs
     id="defs5547" />
  <sodipodi:namedview
     id="base"
     pagecolor="#ffffff"
     bordercolor="#666666"
     borderopacity="1.0"
     inkscape:pageopacity="0.0"
     inkscape:pageshadow="2"
     inkscape:zoom="2.4922168"
     inkscape:cx="21.666878"
     inkscape:cy="43.816626"
     inkscape:document-units="px"
     inkscape:current-layer="layer1"
     showgrid="false"
     showguides="true"
     inkscape:guide-bbox="true"
     inkscape:window-width="900"
     inkscape:window-height="840"
     inkscape:window-x="68"
     inkscape:window-y="0"
     inkscape:window-maximized="0">
    <inkscape:grid
       type="xygrid"
       id="grid3031"
       empspacing="5"
       visible="true"
       enabled="true"
       snapvisiblegridlinesonly="true" />
  </sodipodi:namedview>
  <metadata
     id="metadata5550">
    <rdf:RDF>
      <cc:Work
         rdf:about="">
        <dc:format>image/svg+xml</dc:format>
        <dc:type
           rdf:resource="http://purl.org/dc/dcmitype/StillImage" />
        <dc:title></dc:title>
      </cc:Work>
    </rdf:RDF>
  </metadata>
  <g
     inkscape:label="Layer 1"
     inkscape:groupmode="layer"
     id="layer1"
     transform="translate(0,-924.3622)">
    <g
       id="g3015"
       transform="matrix(0.26438948,0,0,0.22843203,0.46031027,811.35458)">
      <g
         transform="matrix(10.48588,-4.135262,6.1036066,3.5221628,23.415827,-7265.7305)"
         style="font-size:47.46676636px;font-style:normal;font-variant:normal;font-weight:normal;font-stretch:normal;text-align:start;line-height:125%;letter-spacing:0px;word-spacing:0px;writing-mode:lr-tb;text-anchor:start;fill:#ff0000;fill-opacity:1;stroke:none;font-family:Sans;-inkscape-font-specification:Sans"
         id="text3005">
        <path
           d="m -760.18309,1359.4807 -10.96278,0 0,-32.3784 8.48283,0 c 2.67308,0 4.75902,0.3631 6.25783,1.0893 1.49876,0.7108 2.64217,1.6997 3.43021,2.9667 0.788,1.2515 1.18201,2.704 1.18203,4.3573 -2e-5,3.183 -1.64559,5.4621 -4.93672,6.8372 2.36404,0.4481 4.24139,1.4216 5.63204,2.9203 1.40605,1.4988 2.10909,3.2912 2.10912,5.3771 -3e-5,1.6533 -0.42494,3.1289 -1.27474,4.4269 -0.84986,1.2979 -2.10142,2.3563 -3.7547,3.1752 -1.63787,0.819 -3.69291,1.2284 -6.16512,1.2284 m -2.34089,-28.2529 -3.98646,0 0,9.7344 3.08255,0 c 2.47222,0 4.22595,-0.4713 5.26121,-1.4138 1.05068,-0.9425 1.57603,-2.1632 1.57605,-3.662 -2e-5,-3.1057 -1.9778,-4.6586 -5.93335,-4.6586 m 0.34766,13.8599 -4.33412,0 0,10.2675 4.56589,0 c 2.53402,0 4.24912,-0.1932 5.14532,-0.5794 0.91162,-0.4018 1.63784,-1.0198 2.17865,-1.8542 0.55624,-0.8344 0.83436,-1.7306 0.83438,-2.6886 -2e-5,-0.9888 -0.2936,-1.8928 -0.88073,-2.7117 -0.57172,-0.8189 -1.39065,-1.4292 -2.45678,-1.831 -1.06616,-0.4017 -2.75036,-0.6026 -5.05261,-0.6026"
           style="fill:#ff0000;font-family:Gill Sans;-inkscape-font-specification:Gill Sans"
           id="path3034"
           inkscape:connector-curvature="0" />
      </g>
      <path
         id="path6110"
         d="m 238.61655,828.98176 36.50414,-21.04631 0,184.27379 -36.50413,21.04546 0,-184.27294"
         inkscape:connector-curvature="0"
         sodipodi:nodetypes="ccccc"
         style="font-size:52.05965805px;font-style:normal;font-variant:normal;font-weight:normal;font-stretch:normal;text-align:end;line-height:125%;letter-spacing:0px;word-spacing:0px;writing-mode:lr-tb;text-anchor:end;fill:#000000;fill-opacity:1;stroke:none;font-family:Gill Sans;-inkscape-font-specification:Gill Sans" />
      <path
         id="path6112"
         d="m 328.47294,777.17471 36.50416,-21.04632 0,184.27298 -36.50416,21.04633 0,-184.27299"
         inkscape:connector-curvature="0"
         sodipodi:nodetypes="ccccc"
         style="font-size:52.05965805px;font-style:normal;font-variant:normal;font-weight:normal;font-stretch:normal;text-align:end;line-height:125%;letter-spacing:0px;word-spacing:0px;writing-mode:lr-tb;text-anchor:end;fill:#000000;fill-opacity:1;stroke:none;font-family:Gill Sans;-inkscape-font-specification:Gill Sans" />
      <path
         id="path6114"
         d="m 418.32933,725.36688 36.50417,-21.04633 0,184.27377 -36.50417,21.04555 0,-184.27299"
         inkscape:connector-curvature="0"
         sodipodi:nodetypes="ccccc"
         style="font-size:52.05965805px;font-style:normal;font-variant:normal;font-weight:normal;font-stretch:normal;text-align:end;line-height:125%;letter-spacing:0px;word-spacing:0px;writing-mode:lr-tb;text-anchor:end;fill:#000000;fill-opacity:1;stroke:none;font-family:Gill Sans;-inkscape-font-specification:Gill Sans" />
      <text
         transform="matrix(1.0006881,0.5769533,0,0.99931238,0,0)"
         sodipodi:linespacing="125%"
         id="text5553"
         y="899.79095"
         x="224.26587"
         style="font-size:410.48962402px;font-style:normal;font-variant:normal;font-weight:normal;font-stretch:normal;text-align:end;line-height:125%;letter-spacing:0px;word-spacing:0px;writing-mode:lr-tb;text-anchor:end;fill:#000000;fill-opacity:1;stroke:none;font-family:Gill Sans;-inkscape-font-specification:Gill Sans"
         xml:space="preserve"><tspan
           y="899.79095"
           x="224.26587"
           id="tspan5555"
           sodipodi:role="line">d</tspan></text>
      <path
         sodipodi:nodetypes="ccccccccccccccccc"
         inkscape:connector-curvature="0"
         id="path6073"
         d="m 39.443222,646.72756 0,1.72347 50.525444,56.40324 57.474554,3.92456 z m -0.246576,14.77418 -1.479452,93.32313 33.808945,-37.43724 z m 63.089534,58.59109 50.33512,59.10999 0,-62.54446 z m -15.26142,5.40806 -39.691128,31.04824 c 39.001129,-12.21781 65.130128,1.23105 89.753408,17.72949 z"
         style="fill:#000000;stroke:none" />
      <path
         d="m 256.66805,741.05968 c 6.01712,-3.46876 11.16513,-4.36711 15.44407,-2.69507 4.27882,1.67284 6.41825,5.51402 6.41831,11.52203 -6e-5,5.87633 -2.13949,12.18274 -6.41831,18.92314 -4.27894,6.7404 -9.42695,11.84538 -15.44407,15.31336 -5.61606,3.23969 -10.5635,3.95417 -14.84236,2.1489 -4.27888,-1.94008 -6.41833,-5.7805 -6.41831,-11.52203 -2e-5,-5.60909 2.13943,-11.78305 6.41831,-18.52345 4.27886,-6.87286 9.2263,-11.92874 14.84236,-15.16688"
         id="path6102"
         inkscape:connector-curvature="0"
         sodipodi:nodetypes="cccsccscc"
         style="font-size:52.05965805px;font-style:normal;font-variant:normal;font-weight:normal;font-stretch:normal;text-align:end;line-height:125%;letter-spacing:0px;word-spacing:0px;writing-mode:lr-tb;text-anchor:end;fill:#000000;fill-opacity:1;stroke:none;font-family:Gill Sans;-inkscape-font-specification:Gill Sans" />
      <path
         d="m 346.51201,688.37142 c 6.26572,-3.61214 11.62643,-4.54868 16.08215,-2.8065 4.4556,1.74217 6.68342,5.74075 6.68349,11.99732 -7e-5,6.11942 -2.2279,12.68606 -6.68349,19.70462 -4.45572,7.01935 -9.81643,12.33468 -16.08215,15.94681 -5.84808,3.37292 -10.99993,4.11779 -15.45556,2.23693 -4.45568,-2.01955 -6.68353,-6.01891 -6.6835,-11.99731 -3e-5,-5.84048 2.22782,-12.27 6.6835,-19.28856 4.45563,-7.15725 9.60748,-12.42117 15.45556,-15.79331"
         id="path6104"
         inkscape:connector-curvature="0"
         sodipodi:nodetypes="cccsccscc"
         style="font-size:52.05965805px;font-style:normal;font-variant:normal;font-weight:normal;font-stretch:normal;text-align:end;line-height:125%;letter-spacing:0px;word-spacing:0px;writing-mode:lr-tb;text-anchor:end;fill:#4682b4;fill-opacity:1;stroke:none;font-family:Gill Sans;-inkscape-font-specification:Gill Sans" />
      <path
         d="m 436.38084,637.44557 c 6.01711,-3.46954 11.16513,-4.3679 15.44407,-2.69585 4.27881,1.67283 6.41825,5.51403 6.41831,11.52281 -6e-5,5.87555 -2.1395,12.18197 -6.41831,18.92315 -4.27894,6.73962 -9.42696,11.84459 -15.44407,15.31336 -5.61607,3.23891 -10.56351,3.95339 -14.84235,2.14811 -4.27891,-1.9393 -6.41834,-5.7805 -6.41832,-11.52204 -2e-5,-5.6083 2.13941,-11.78303 6.41832,-18.52265 4.27884,-6.87364 9.22628,-11.92954 14.84235,-15.16689"
         id="path6106"
         inkscape:connector-curvature="0"
         sodipodi:nodetypes="cccsccscc"
         style="font-size:52.05965805px;font-style:normal;font-variant:normal;font-weight:normal;font-stretch:normal;text-align:end;line-height:125%;letter-spacing:0px;word-spacing:0px;writing-mode:lr-tb;text-anchor:end;fill:#000000;fill-opacity:1;stroke:none;font-family:Gill Sans;-inkscape-font-specification:Gill Sans" />
      <path
         sodipodi:nodetypes="cccsccscc"
         inkscape:connector-curvature="0"
         id="path6135"
         d="m 120.52572,839.38027 c -9.79716,-5.64961 -18.17924,-7.11284 -25.146267,-4.38894 -6.966831,2.72312 -10.450297,8.97656 -10.4504,18.76031 1.03e-4,9.56714 3.483569,19.83552 10.4504,30.80982 6.967027,10.97506 15.349107,19.28623 25.146267,24.93426 9.14417,5.27327 17.19966,6.43808 24.16655,3.49759 6.96696,-3.1571 10.45043,-9.41209 10.45039,-18.76109 4e-5,-9.13083 -3.48343,-19.18416 -10.45039,-30.15845 -6.96689,-11.19088 -15.02238,-19.42258 -24.16655,-24.6935"
         style="font-size:52.05965805px;font-style:normal;font-variant:normal;font-weight:normal;font-stretch:normal;text-align:end;line-height:125%;letter-spacing:0px;word-spacing:0px;writing-mode:lr-tb;text-anchor:end;fill:#000000;fill-opacity:1;stroke:none;font-family:Gill Sans;-inkscape-font-specification:Gill Sans" />
      <path
         sodipodi:end="7.5825164"
         sodipodi:start="5.6913248"
         transform="matrix(16.377621,0,7.8708186,16.019376,-461.193,203.97203)"
         d="m 17.097757,40.800445 a 1.8381519,2.0982678 0 0 1 -1.032601,3.192063 l -0.492888,-2.021427 z"
         sodipodi:ry="2.0982678"
         sodipodi:rx="1.8381519"
         sodipodi:cy="41.971081"
         sodipodi:cx="15.572268"
         id="path6148"
         style="fill:#4682b4;fill-opacity:1;stroke:none"
         sodipodi:type="arc" />
    </g>
  </g>
  <g
     inkscape:groupmode="layer"
     id="layer2"
     inkscape:label="light"
     transform="translate(0,66)" />
</svg>
