<?xml version="1.0" encoding="UTF-8" standalone="no"?>
<!-- Created with Inkscape (http://www.inkscape.org/) -->

<svg
   xmlns:dc="http://purl.org/dc/elements/1.1/"
   xmlns:cc="http://creativecommons.org/ns#"
   xmlns:rdf="http://www.w3.org/1999/02/22-rdf-syntax-ns#"
   xmlns:svg="http://www.w3.org/2000/svg"
   xmlns="http://www.w3.org/2000/svg"
   xmlns:sodipodi="http://sodipodi.sourceforge.net/DTD/sodipodi-0.dtd"
   xmlns:inkscape="http://www.inkscape.org/namespaces/inkscape"
   width="1052.3622"
   height="744.09448"
   id="svg2"
   version="1.1"
   inkscape:version="0.48.2 r9819"
   sodipodi:docname="drawing-1.svg">
  <defs
     id="defs4" />
  <sodipodi:namedview
     id="base"
     pagecolor="#ffffff"
     bordercolor="#666666"
     borderopacity="1.0"
     inkscape:pageopacity="0.0"
     inkscape:pageshadow="2"
     inkscape:zoom="2.1972865"
     inkscape:cx="240.33413"
     inkscape:cy="321.83246"
     inkscape:document-units="px"
     inkscape:current-layer="layer1"
     showgrid="false"
     inkscape:window-width="1024"
     inkscape:window-height="744"
     inkscape:window-x="0"
     inkscape:window-y="24"
     inkscape:window-maximized="1" />
  <metadata
     id="metadata7">
    <rdf:RDF>
      <cc:Work
         rdf:about="">
        <dc:format>image/svg+xml</dc:format>
        <dc:type
           rdf:resource="http://purl.org/dc/dcmitype/StillImage" />
        <dc:title />
      </cc:Work>
    </rdf:RDF>
  </metadata>
  <g
     inkscape:label="Layer 1"
     inkscape:groupmode="layer"
     id="layer1"
     transform="translate(0,-308.2677)">
    <path
       style="fill:#b3b3b3;fill-opacity:1;stroke:#000000"
       d="m 199.75,332.6313 c -2.65809,0 -4.78125,2.12316 -4.78125,4.78125 l 0,8.1875 c -1.57023,-1.97609 -3.99864,-3.25 -6.71875,-3.25 -4.73387,0 -8.5625,3.82863 -8.5625,8.5625 0,4.73387 3.82863,8.5625 8.5625,8.5625 2.72011,0 5.14852,-1.24265 6.71875,-3.21875 l 0,8.71875 c 0,2.6581 2.12316,4.78125 4.78125,4.78125 l 187,0 c 2.65809,0 4.78125,-2.12315 4.78125,-4.78125 l 0,-27.5625 c 0,-2.65809 -2.12316,-4.78125 -4.78125,-4.78125 z"
       id="rect2985"
       inkscape:connector-curvature="0"
       sodipodi:nodetypes="sscssscsssssss" />
    <rect
       style="fill:#ffffff;fill-opacity:1;stroke:none"
       id="rect2987"
       width="58.57143"
       height="31.428572"
       x="326.83466"
       y="335.48346"
       rx="4.7979999"
       ry="4.7979999" />
    <text
       xml:space="preserve"
       style="font-size:21.54123497px;font-style:normal;font-weight:normal;line-height:125%;letter-spacing:0px;word-spacing:0px;fill:#000000;fill-opacity:1;stroke:none;font-family:Sans"
       x="209.28174"
       y="359.22836"
       id="text2989"
       sodipodi:linespacing="125%"><tspan
         sodipodi:role="line"
         id="tspan2991"
         x="209.28174"
         y="359.22836">d3.select</tspan></text>
    <path
       style="fill:#ff00ff;fill-opacity:1;stroke:#000000"
       d="m 53.375,332.57277 c -2.658092,0 -4.8125,2.12316 -4.8125,4.78125 l 0,27.5625 c 0,2.6581 2.154408,4.78125 4.8125,4.78125 l 7.78125,0 12.96875,5.53125 13,-5.53125 103.0625,0 c 2.65809,0 4.8125,-2.12315 4.8125,-4.78125 l 0,-8.5 c -1.56875,2.00777 -4.00457,3.28125 -6.75,3.28125 -4.73387,0 -8.5625,-3.82863 -8.5625,-8.5625 0,-4.73386 3.82863,-8.5625 8.5625,-8.5625 2.74543,0 5.18125,1.30474 6.75,3.3125 l 0,-8.53125 c 0,-2.65809 -2.15441,-4.78125 -4.8125,-4.78125 l -103.0625,0 -13,5.5625 -12.96875,-5.5625 -7.78125,0 z"
       id="rect2995"
       inkscape:connector-curvature="0" />
    <text
       sodipodi:linespacing="125%"
       id="text3009"
       y="359.88986"
       x="66.018501"
       style="font-size:21.54123497px;font-style:normal;font-weight:normal;line-height:125%;letter-spacing:0px;word-spacing:0px;fill:#000000;fill-opacity:1;stroke:none;font-family:Sans"
       xml:space="preserve"><tspan
         y="359.88986"
         x="66.018501"
         id="tspan3011"
         sodipodi:role="line">set</tspan></text>
    <rect
       ry="4.7979999"
       rx="4.7979999"
       y="336.14496"
       x="109.2857"
       height="31.428572"
       width="58.57143"
       id="rect3013"
       style="fill:#ffaaaa;fill-opacity:1;stroke:none" />
    <text
       sodipodi:linespacing="125%"
       id="text3015"
       y="356.31845"
       x="118.87563"
       style="font-size:21.54123497px;font-style:normal;font-weight:normal;line-height:125%;letter-spacing:0px;word-spacing:0px;fill:#000000;fill-opacity:1;stroke:none;font-family:Sans"
       xml:space="preserve"><tspan
         y="356.31845"
         x="118.87563"
         id="tspan3017"
         sodipodi:role="line">svg</tspan></text>
    <text
       xml:space="preserve"
       style="font-size:21.54123497px;font-style:normal;font-weight:normal;line-height:125%;letter-spacing:0px;word-spacing:0px;fill:#000000;fill-opacity:1;stroke:none;font-family:Sans"
       x="335.13135"
       y="355.40823"
       id="text3033"
       sodipodi:linespacing="125%"><tspan
         sodipodi:role="line"
         id="tspan3035"
         x="335.13135"
         y="355.40823">svg</tspan></text>
    <path
       id="path3815"
       d="m 53.375,868.66557 c -2.658092,0 -4.8125,2.12316 -4.8125,4.78125 l 0,87.5625 c 0,2.6581 3.848711,7.25846 4.8125,4.78125 l 7.78125,0 12.96875,5.53125 13,-5.53125 183.0625,0 c 2.65809,0 4.8125,-2.12315 4.8125,-4.78125 l 0,-87.5625 c 0,-2.65809 -2.15441,-4.78125 -4.8125,-4.78125 l -183.0625,0 -13,5.5625 -12.96875,-5.5625 z"
       style="fill:#008000;fill-opacity:1;stroke:#000000"
       inkscape:connector-curvature="0"
       sodipodi:nodetypes="sssscccsccscccs" />
    <text
       sodipodi:linespacing="125%"
       id="text3037"
       y="895.60443"
       x="94.813377"
       style="font-size:21.54123497px;font-style:normal;font-weight:normal;line-height:125%;letter-spacing:0px;word-spacing:0px;fill:#000000;fill-opacity:1;stroke:none;font-family:Sans"
       xml:space="preserve"><tspan
         y="895.60443"
         x="94.813377"
         id="tspan3039"
         sodipodi:role="line">d3.enter</tspan></text>
    <rect
       style="fill:#ffffff;fill-opacity:1;stroke:none"
       id="rect3817"
       width="58.57143"
       height="31.428572"
       x="192.7484"
       y="871.78265"
       rx="4.7979999"
       ry="4.7979999" />
    <text
       xml:space="preserve"
       style="font-size:21.54123497px;font-style:normal;font-weight:normal;line-height:125%;letter-spacing:0px;word-spacing:0px;fill:#000000;fill-opacity:1;stroke:none;font-family:Sans"
       x="202.33833"
       y="891.95612"
       id="text3819"
       sodipodi:linespacing="125%"><tspan
         sodipodi:role="line"
         id="tspan3821"
         x="202.33833"
         y="891.95612">svg</tspan></text>
    <g
       id="g3829"
       transform="translate(-19.569591,424.39108)">
      <rect
         ry="4.7979999"
         rx="4.7979999"
         transform="translate(0,308.2677)"
         y="143.92053"
         x="77.555992"
         height="30.571863"
         width="32.50272"
         id="rect3823"
         style="fill:#0000ff;fill-opacity:1;stroke:#000000;stroke-width:2;stroke-miterlimit:4;stroke-opacity:1;stroke-dasharray:none" />
      <text
         sodipodi:linespacing="125%"
         id="text3825"
         y="480.01321"
         x="77.049538"
         style="font-size:40px;font-style:normal;font-weight:normal;line-height:125%;letter-spacing:0px;word-spacing:0px;fill:#ffffff;fill-opacity:1;stroke:none;font-family:Sans"
         xml:space="preserve"><tspan
           y="480.01321"
           x="77.049538"
           id="tspan3827"
           sodipodi:role="line">+</tspan></text>
    </g>
    <text
       xml:space="preserve"
       style="font-size:30.68929291px;font-style:normal;font-weight:normal;line-height:125%;letter-spacing:0px;word-spacing:0px;fill:#000000;fill-opacity:1;stroke:none;font-family:Sans"
       x="55.800346"
       y="421.77625"
       id="text3838"
       sodipodi:linespacing="125%"><tspan
         sodipodi:role="line"
         id="tspan3840"
         x="55.800346"
         y="421.77625">var circle = svg.selectAll(&quot;circle&quot;);</tspan></text>
    <path
       sodipodi:nodetypes="sscssscsssssss"
       inkscape:connector-curvature="0"
       id="path3842"
       d="m 219.75,497.39755 c -2.65809,0 -4.78125,2.12316 -4.78125,4.78125 l 0,8.1875 c -1.57023,-1.97609 -3.99864,-3.25 -6.71875,-3.25 -4.73387,0 -8.5625,3.82863 -8.5625,8.5625 0,4.73387 3.82863,8.5625 8.5625,8.5625 2.72011,0 5.14852,-1.24265 6.71875,-3.21875 l 0,8.71875 c 0,2.6581 2.12316,4.78125 4.78125,4.78125 l 313,0 c 2.65809,0 4.78125,-2.12315 4.78125,-4.78125 l 0,-27.5625 c 0,-2.65809 -2.12316,-4.78125 -4.78125,-4.78125 z"
       style="fill:#b3b3b3;fill-opacity:1;stroke:#000000" />
    <rect
       ry="4.7979999"
       rx="4.7979999"
       y="500.24973"
       x="455.83487"
       height="31.428572"
       width="75.305504"
       id="rect3844"
       style="fill:#ffffff;fill-opacity:1;stroke:none" />
    <text
       sodipodi:linespacing="125%"
       id="text3846"
       y="523.99463"
       x="350.28195"
       style="font-size:21.54123497px;font-style:normal;font-weight:normal;line-height:125%;letter-spacing:0px;word-spacing:0px;fill:#000000;fill-opacity:1;stroke:none;font-family:Sans"
       xml:space="preserve"><tspan
         y="523.99463"
         x="350.28195"
         id="tspan3848"
         sodipodi:role="line">d3.select</tspan></text>
    <path
       inkscape:connector-curvature="0"
       id="path3850"
       d="m 53.375,497.33902 c -2.658092,0 -4.8125,2.12316 -4.8125,4.78125 l 0,27.5625 c 0,2.6581 2.154408,4.78125 4.8125,4.78125 l 7.78125,0 12.96875,5.53125 13,-5.53125 123.0625,0 c 2.65809,0 4.8125,-2.12315 4.8125,-4.78125 l 0,-8.5 c -1.56875,2.00777 -4.00457,3.28125 -6.75,3.28125 -4.73387,0 -8.5625,-3.82863 -8.5625,-8.5625 0,-4.73386 3.82863,-8.5625 8.5625,-8.5625 2.74543,0 5.18125,1.30474 6.75,3.3125 l 0,-8.53125 c 0,-2.65809 -2.15441,-4.78125 -4.8125,-4.78125 l -123.0625,0 -13,5.5625 -12.96875,-5.5625 z"
       style="fill:#ff00ff;fill-opacity:1;stroke:#000000"
       sodipodi:nodetypes="sssscccsscssscsscccs" />
    <text
       xml:space="preserve"
       style="font-size:21.54123497px;font-style:normal;font-weight:normal;line-height:125%;letter-spacing:0px;word-spacing:0px;fill:#000000;fill-opacity:1;stroke:none;font-family:Sans"
       x="66.018501"
       y="524.65613"
       id="text3852"
       sodipodi:linespacing="125%"><tspan
         sodipodi:role="line"
         id="tspan3854"
         x="66.018501"
         y="524.65613">set</tspan></text>
    <rect
       style="fill:#ffaaaa;fill-opacity:1;stroke:none"
       id="rect3856"
       width="72.08741"
       height="31.428572"
       x="109.2857"
       y="500.91122"
       rx="4.7979999"
       ry="4.7979999" />
    <text
       xml:space="preserve"
       style="font-size:21.54123497px;font-style:normal;font-weight:normal;line-height:125%;letter-spacing:0px;word-spacing:0px;fill:#000000;fill-opacity:1;stroke:none;font-family:Sans"
       x="118.87563"
       y="521.08472"
       id="text3858"
       sodipodi:linespacing="125%"><tspan
         sodipodi:role="line"
         id="tspan3860"
         x="118.87563"
         y="521.08472">circle</tspan></text>
    <text
       sodipodi:linespacing="125%"
       id="text3862"
       y="520.1745"
       x="464.13156"
       style="font-size:21.54123497px;font-style:normal;font-weight:normal;line-height:125%;letter-spacing:0px;word-spacing:0px;fill:#000000;fill-opacity:1;stroke:none;font-family:Sans"
       xml:space="preserve"><tspan
         y="520.1745"
         x="464.13156"
         id="tspan3864"
         sodipodi:role="line">circle</tspan></text>
    <text
       xml:space="preserve"
       style="font-size:21.54123497px;font-style:normal;font-weight:normal;line-height:125%;letter-spacing:0px;word-spacing:0px;fill:#000000;fill-opacity:1;stroke:none;font-family:Sans"
       x="226.70726"
       y="523.99463"
       id="text3866"
       sodipodi:linespacing="125%"><tspan
         sodipodi:role="line"
         id="tspan3868"
         x="226.70726"
         y="523.99463">from</tspan></text>
    <rect
       style="fill:#ffaaaa;fill-opacity:1;stroke:none"
       id="rect3872"
       width="58.57143"
       height="31.428572"
       x="284.34985"
       y="499.55484"
       rx="4.7979999"
       ry="4.7979999" />
    <text
       xml:space="preserve"
       style="font-size:21.54123497px;font-style:normal;font-weight:normal;line-height:125%;letter-spacing:0px;word-spacing:0px;fill:#000000;fill-opacity:1;stroke:none;font-family:Sans"
       x="293.93979"
       y="519.72833"
       id="text3874"
       sodipodi:linespacing="125%"><tspan
         sodipodi:role="line"
         id="tspan3876"
         x="293.93979"
         y="519.72833">svg</tspan></text>
    <text
       sodipodi:linespacing="125%"
       id="text3115"
       y="598.12762"
       x="55.800346"
       style="font-size:30.68929291px;font-style:normal;font-weight:normal;line-height:125%;letter-spacing:0px;word-spacing:0px;fill:#000000;fill-opacity:1;stroke:none;font-family:Sans"
       xml:space="preserve"><tspan
         y="598.12762"
         x="55.800346"
         id="tspan3117"
         sodipodi:role="line">circle.style(&quot;fill&quot;, &quot;steelblue&quot;);</tspan><tspan
         y="636.48926"
         x="55.800346"
         sodipodi:role="line"
         id="tspan3119">circle.attr(&quot;cy&quot;, 90);</tspan><tspan
         y="674.85083"
         x="55.800346"
         sodipodi:role="line"
         id="tspan3121">circle.attr(&quot;r&quot;, 30);</tspan></text>
    <path
       style="fill:#b3b3b3;fill-opacity:1;stroke:#000000"
       d="m 336.06518,817.10528 c -2.65809,0 -4.78125,2.12316 -4.78125,4.78125 l 0,8.1875 c -1.57023,-1.97609 -3.99864,-3.25 -6.71875,-3.25 -4.73387,0 -8.5625,3.82863 -8.5625,8.5625 0,4.73387 3.82863,8.5625 8.5625,8.5625 2.72011,0 5.14852,-1.24265 6.71875,-3.21875 l 0,8.71875 c 0,2.6581 2.12316,4.78125 4.78125,4.78125 l 313,0 c 2.65809,0 4.78125,-2.12315 4.78125,-4.78125 l 0,-27.5625 c 0,-2.65809 -2.12316,-4.78125 -4.78125,-4.78125 z"
       id="path3123"
       inkscape:connector-curvature="0"
       sodipodi:nodetypes="sscssscsssssss" />
    <rect
       style="fill:#ffffff;fill-opacity:1;stroke:none"
       id="rect3125"
       width="75.305504"
       height="31.428572"
       x="572.15002"
       y="819.9574"
       rx="4.7979999"
       ry="4.7979999" />
    <text
       xml:space="preserve"
       style="font-size:21.54123497px;font-style:normal;font-weight:normal;line-height:125%;letter-spacing:0px;word-spacing:0px;fill:#000000;fill-opacity:1;stroke:none;font-family:Sans"
       x="466.59714"
       y="843.70233"
       id="text3127"
       sodipodi:linespacing="125%"><tspan
         sodipodi:role="line"
         id="tspan3129"
         x="466.59714"
         y="843.70233">d3.select</tspan></text>
    <path
       sodipodi:nodetypes="sssscccsscssscsscccs"
       style="fill:#ff00ff;fill-opacity:1;stroke:#000000"
       d="m 53.375,718.74368 c -2.658092,0 -4.8125,2.12316 -4.8125,4.78125 l 0,27.5625 c 0,2.6581 2.154408,4.78125 4.8125,4.78125 l 7.78125,0 12.96875,5.53125 13,-5.53125 209.0625,0 c 2.65809,0 4.8125,-2.12315 4.8125,-4.78125 l 0,-8.5 c -1.56875,2.00777 -4.00457,3.28125 -6.75,3.28125 -4.73387,0 -8.5625,-3.82863 -8.5625,-8.5625 0,-4.73386 3.82863,-8.5625 8.5625,-8.5625 2.74543,0 5.18125,1.30474 6.75,3.3125 l 0,-8.53125 c 0,-2.65809 -2.15441,-4.78125 -4.8125,-4.78125 l -209.0625,0 -13,5.5625 -12.96875,-5.5625 z"
       id="path3131"
       inkscape:connector-curvature="0" />
    <text
       sodipodi:linespacing="125%"
       id="text3133"
       y="746.06079"
       x="66.018501"
       style="font-size:21.54123497px;font-style:normal;font-weight:normal;line-height:125%;letter-spacing:0px;word-spacing:0px;fill:#000000;fill-opacity:1;stroke:none;font-family:Sans"
       xml:space="preserve"><tspan
         y="746.06079"
         x="66.018501"
         id="tspan3135"
         sodipodi:role="line">set style</tspan></text>
    <rect
       ry="4.7979999"
       rx="4.7979999"
       y="722.31586"
       x="523.99854"
       height="31.428572"
       width="72.08741"
       id="rect3137"
       style="fill:#ffaaaa;fill-opacity:1;stroke:none" />
    <text
       sodipodi:linespacing="125%"
       id="text3139"
       y="742.48938"
       x="533.58844"
       style="font-size:21.54123497px;font-style:normal;font-weight:normal;line-height:125%;letter-spacing:0px;word-spacing:0px;fill:#000000;fill-opacity:1;stroke:none;font-family:Sans"
       xml:space="preserve"><tspan
         y="742.48938"
         x="533.58844"
         id="tspan3141"
         sodipodi:role="line">circle</tspan></text>
    <text
       xml:space="preserve"
       style="font-size:21.54123497px;font-style:normal;font-weight:normal;line-height:125%;letter-spacing:0px;word-spacing:0px;fill:#000000;fill-opacity:1;stroke:none;font-family:Sans"
       x="580.44672"
       y="839.8822"
       id="text3143"
       sodipodi:linespacing="125%"><tspan
         sodipodi:role="line"
         id="tspan3145"
         x="580.44672"
         y="839.8822">circle</tspan></text>
    <text
       sodipodi:linespacing="125%"
       id="text3147"
       y="843.70233"
       x="343.02243"
       style="font-size:21.54123497px;font-style:normal;font-weight:normal;line-height:125%;letter-spacing:0px;word-spacing:0px;fill:#000000;fill-opacity:1;stroke:none;font-family:Sans"
       xml:space="preserve"><tspan
         y="843.70233"
         x="343.02243"
         id="tspan3149"
         sodipodi:role="line">from</tspan></text>
    <rect
       ry="4.7979999"
       rx="4.7979999"
       y="819.26251"
       x="400.66504"
       height="31.428572"
       width="58.57143"
       id="rect3151"
       style="fill:#ffaaaa;fill-opacity:1;stroke:none" />
    <text
       sodipodi:linespacing="125%"
       id="text3153"
       y="839.43604"
       x="410.25497"
       style="font-size:21.54123497px;font-style:normal;font-weight:normal;line-height:125%;letter-spacing:0px;word-spacing:0px;fill:#000000;fill-opacity:1;stroke:none;font-family:Sans"
       xml:space="preserve"><tspan
         y="839.43604"
         x="410.25497"
         id="tspan3155"
         sodipodi:role="line">svg</tspan></text>
    <rect
       ry="4.7979999"
       rx="4.7979999"
       y="721.65436"
       x="168.01523"
       height="31.428572"
       width="75.305504"
       id="rect3157"
       style="fill:#ffffff;fill-opacity:1;stroke:none" />
    <text
       sodipodi:linespacing="125%"
       id="text3159"
       y="741.57916"
       x="176.31192"
       style="font-size:21.54123497px;font-style:normal;font-weight:normal;line-height:125%;letter-spacing:0px;word-spacing:0px;fill:#000000;fill-opacity:1;stroke:none;font-family:Sans"
       xml:space="preserve"><tspan
         y="741.57916"
         x="176.31192"
         id="tspan3161"
         sodipodi:role="line">r</tspan></text>
    <text
       xml:space="preserve"
       style="font-size:21.54123497px;font-style:normal;font-weight:normal;line-height:125%;letter-spacing:0px;word-spacing:0px;fill:#000000;fill-opacity:1;stroke:none;font-family:Sans"
       x="253.52249"
       y="746.06079"
       id="text3163"
       sodipodi:linespacing="125%"><tspan
         sodipodi:role="line"
         id="tspan3165"
         x="253.52249"
         y="746.06079">of</tspan></text>
    <text
       sodipodi:linespacing="125%"
       id="text3167"
       y="746.06079"
       x="610.08044"
       style="font-size:21.54123497px;font-style:normal;font-weight:normal;line-height:125%;letter-spacing:0px;word-spacing:0px;fill:#000000;fill-opacity:1;stroke:none;font-family:Sans"
       xml:space="preserve"><tspan
         y="746.06079"
         x="610.08044"
         id="tspan3169"
         sodipodi:role="line">to</tspan></text>
  </g>
</svg>
